<?xml version="1.0" encoding="utf-8"?>
<!-- Designed by Vexels.com - 2016 All Rights Reserved - https://vexels.com/terms-and-conditions/  -->

<svg version="1.1" id="Capa_1" xmlns="http://www.w3.org/2000/svg" xmlns:xlink="http://www.w3.org/1999/xlink" x="0px" y="0px"
	 width="1200px" height="1200px" viewBox="0 0 1200 1200" enable-background="new 0 0 1200 1200" xml:space="preserve">
<path d="M1076.301,874.994v-550l-7.179-4.15c-1.468-1.171-3.085-2.076-4.797-2.775L600.007,50L123.7,324.994v550L600.007,1150
	L1076.301,874.994z M374.394,487.105l208.3,116.093c0,0.115-0.034,0.23-0.034,0.321l-0.886,246.453l-207.38-119.718V487.105z
	 M621.089,604.529l204.505-115.704v241.43L620.216,848.836L621.089,604.529z M603.072,570.553L397.857,456.201L599.973,339.5
	l203.672,117.585L603.072,570.553z M619.322,1094.452l0.718-201.169l243.969-140.862V467.084l173.85-98.355v484.076
	L619.322,1094.452z M1018.103,335.762L842.48,435.137L600,295.134L358.751,434.391l-176.915-98.605L600,94.365L1018.103,335.762z
	 M162.102,368.798l173.856,96.888v286.747L581.604,894.27l-0.71,200.32L162.115,852.805V368.798H162.102z"/>
</svg>
